<svg width="64" height="64" viewBox="0 0 64 64" fill="none" xmlns="http://www.w3.org/2000/svg">
<path fill-rule="evenodd" clip-rule="evenodd" d="M53 45.953C46.8197 52.158 38.2557 56 28.7916 56C22.2723 56 16.1802 54.1769 11 51.0143C14.2586 47.7843 18.52 45.6715 23.1364 45.0457C23.887 44.8977 24.7127 45.1196 25.3132 45.5637C28.4658 47.8577 32.2188 49.0417 36.122 49.0417C40.0253 49.0417 43.7782 47.8577 46.9308 45.5637C47.5314 45.1196 48.357 44.9717 49.1076 45.0457C50.4429 45.2267 51.7448 45.5321 53 45.953Z" fill="#293148" fill-opacity="0.45"/>
<path d="M35.3727 8C25.7438 8 17.8727 15.8711 17.8727 25.5C17.8727 35.1289 25.7438 43 35.3727 43C45.0016 43 52.8727 35.1289 52.8727 25.5C52.8727 15.8711 45.0016 8 35.3727 8Z" fill="#293148" fill-opacity="0.45"/>
</svg>
